<?xml version="1.0" encoding="UTF-8"?>
<svg id="Layer_1" xmlns="http://www.w3.org/2000/svg" version="1.1" viewBox="0 0 48 48">
  <!-- Generator: Adobe Illustrator 29.6.1, SVG Export Plug-In . SVG Version: 2.1.1 Build 9)  -->
  <defs>
    <style>
      .st0 {
        fill: #000922;
      }

      .st1 {
        fill: #fff;
      }
    </style>
  </defs>
  <circle class="st1" cx="24" cy="24" r="23.6"/>
  <path class="st0" d="M14.5,28.4l2.7,4.9c.3-.3.7-.5,1.2-.7l-2.7-4.9c-.3.3-.7.5-1.2.7M16.4,35.9c0-.2,0-.5,0-.7s0-.5,0-.7h-5.2c0,.2,0,.5,0,.7s0,.5,0,.7h5.2ZM28.5,32.7l-3.4-6.2h1.4c0-.2,0-.5,0-.7s0-.5,0-.7h-2.2l-3.7-6.8c-.3.3-.7.5-1.2.7l3.3,6.1h-6.5c0,.2,0,.5,0,.7s0,.5,0,.7h7.2l3.7,6.9c.3-.3.7-.5,1.2-.7M17,18.3l-2.6,4.8c.5.2.9.4,1.2.7l2.6-4.8c-.5-.2-.9-.4-1.2-.7M36.7,35.9c0-.2,0-.5,0-.7s0-.5,0-.7h-5.1c0,.2,0,.5,0,.7s0,.5,0,.7h5.1ZM24.6,9.6l3.3,6.1h-6.5c0,.2,0,.5,0,.7s0,.5,0,.7h7.2l8.8,16.3c.3-.3.7-.5,1.2-.7l-8.4-15.6h1.4c0-.2,0-.5,0-.7s0-.5,0-.7h-2.2l-3.7-6.8c-.3.3-.7.5-1.2.7M20.1,16.4c0-.7-.5-1.3-1.2-1.3s-1.2.6-1.2,1.3.5,1.3,1.2,1.3,1.2-.6,1.2-1.3ZM35.5,16.4c0-.7-.5-1.3-1.2-1.3s-1.2.6-1.2,1.3.5,1.3,1.2,1.3,1.2-.6,1.2-1.3ZM15.1,25.7c0-.7-.5-1.3-1.2-1.3s-1.2.6-1.2,1.3.5,1.3,1.2,1.3,1.2-.6,1.2-1.3ZM30.4,25.7c0-.7-.5-1.3-1.2-1.3s-1.2.6-1.2,1.3.5,1.3,1.2,1.3,1.2-.6,1.2-1.3ZM9.9,35.2c0-.7-.5-1.3-1.2-1.3s-1.2.6-1.2,1.3.5,1.3,1.2,1.3,1.2-.6,1.2-1.3ZM20.2,35.2c0-.7-.5-1.3-1.2-1.3s-1.2.6-1.2,1.3.5,1.3,1.2,1.3,1.2-.6,1.2-1.3ZM30.4,35.2c0-.7-.5-1.3-1.2-1.3s-1.2.6-1.2,1.3.5,1.3,1.2,1.3,1.2-.6,1.2-1.3ZM40.6,35.2c0-.7-.5-1.3-1.2-1.3s-1.2.6-1.2,1.3.5,1.3,1.2,1.3,1.2-.6,1.2-1.3ZM24,8.3c-.7,0-1.2-.6-1.2-1.3s.5-1.3,1.2-1.3,1.2.6,1.2,1.3-.5,1.3-1.2,1.3Z"/>
</svg>