<svg xmlns="http://www.w3.org/2000/svg" viewBox="18.95 17.59 155 155">
  <rect width="192.9" height="192.9" fill="#ff6719"/>
  <g fill="#000000">
    <path d="M78.24,119.3h-8.3l-.69-.69v-26.98h-.69l-11.07,26.98-.69.69h-7.61l-.69-.69-11.07-26.98h-.69v26.98l-.69.69h-8.3l-.69-.69v-47.04l.69-.69h10.38l.69.69,13.84,33.9h.69l13.84-33.9.69-.69h10.38l.69.69v47.04l-.69.69Z"/>
    <path d="M90.04,118.61l-.69.69h-4.84l-.69-.69v-6.92l23.52-40.12.69-.69h4.84l.69.69v6.92l-23.52,40.12Z"/>
    <path d="M141.88,99.93h-13.14l-.69.69v17.99l-.69.69h-8.3l-.69-.69v-47.04l.69-.69h22.83c9.68,0,16.6,4.84,16.6,14.53s-6.92,14.53-16.6,14.53ZM141.88,79.18h-13.14l-.69.69v11.07l.69.69h13.14c4.15,0,6.92-1.38,6.92-6.23s-2.77-6.23-6.92-6.23Z"/>
    <path d="M165.15,119.3h-9.69l-.69-.69v-8.99l.69-.69h9.69l.69.69v8.99l-.69.69Z"/>
  </g>
</svg>
