<?xml version="1.0" standalone="no"?>
<!DOCTYPE svg PUBLIC "-//W3C//DTD SVG 20010904//EN"
 "http://www.w3.org/TR/2001/REC-SVG-20010904/DTD/svg10.dtd">
<svg version="1.0" xmlns="http://www.w3.org/2000/svg"
 width="752.000000pt" height="752.000000pt" viewBox="0 0 752.000000 752.000000"
 preserveAspectRatio="xMidYMid meet">
<metadata>
Created by potrace 1.14, written by Peter Selinger 2001-2017
</metadata>
<g transform="translate(0.000000,752.000000) scale(0.100000,-0.100000)"
fill="#000000" stroke="none">
<path d="M2 7093 c13 -27 76 -178 163 -388 32 -77 68 -163 81 -192 13 -28 24
-54 24 -57 0 -4 9 -25 19 -49 10 -23 36 -82 56 -132 21 -49 43 -103 51 -120 7
-16 29 -68 48 -115 19 -47 42 -98 50 -115 9 -16 16 -38 16 -47 0 -9 4 -19 9
-23 5 -3 15 -22 22 -43 12 -38 43 -113 60 -144 5 -10 9 -25 9 -33 0 -8 5 -15
10 -15 6 0 10 -6 10 -13 0 -11 18 -55 105 -262 4 -11 9 -22 10 -25 1 -3 9 -23
19 -45 10 -22 27 -62 37 -89 11 -27 29 -69 40 -92 10 -24 19 -46 19 -49 0 -3
8 -25 19 -48 10 -23 37 -87 61 -142 23 -55 48 -113 56 -129 8 -16 14 -33 14
-37 0 -5 11 -32 24 -61 13 -29 36 -82 50 -118 15 -36 31 -74 35 -85 22 -51 41
-97 76 -180 21 -49 45 -108 55 -130 9 -22 27 -65 40 -95 13 -30 29 -68 36 -85
7 -16 21 -52 32 -80 11 -27 28 -68 38 -90 10 -22 18 -42 19 -45 0 -3 11 -27
23 -54 12 -27 22 -51 22 -53 0 -3 14 -37 31 -76 50 -116 54 -125 119 -282 34
-82 70 -169 81 -192 10 -24 19 -49 19 -57 0 -7 7 -19 15 -26 8 -6 14 -15 13
-18 -1 -4 2 -16 7 -27 8 -19 47 -114 68 -165 5 -14 11 -31 13 -39 1 -7 7 -18
13 -24 6 -6 11 -19 11 -29 0 -10 5 -18 12 -18 6 0 9 -3 6 -6 -4 -3 2 -24 12
-47 47 -107 53 -123 56 -132 7 -27 48 -111 57 -117 6 -4 17 -3 25 1 8 4 31 5
52 1 21 -4 43 -4 49 -1 5 4 31 5 58 3 26 -1 55 -3 63 -4 8 0 31 0 50 1 19 1
42 1 50 1 8 0 38 0 65 0 28 0 59 -1 70 -1 11 -1 36 -1 55 0 19 1 42 1 50 1 8
0 38 0 65 0 28 0 59 -1 70 -1 11 -1 36 -1 55 0 19 1 42 1 50 1 8 0 38 0 65 0
28 0 59 -1 70 -1 11 -1 36 -1 55 0 19 1 42 1 50 1 8 0 38 0 65 0 28 0 59 -1
70 -1 11 -1 36 -1 55 0 19 1 42 1 50 1 8 0 35 1 60 3 25 2 53 -1 62 -5 20 -10
34 7 21 25 -5 7 -25 53 -43 102 -18 50 -37 95 -40 100 -4 6 -17 37 -30 70 -12
33 -28 74 -35 90 -8 17 -23 55 -34 85 -12 30 -26 64 -31 75 -5 11 -32 79 -61
150 -28 72 -56 144 -64 160 -7 17 -43 107 -80 200 -37 94 -74 183 -81 199 -8
16 -14 32 -14 36 0 4 -10 29 -22 56 -12 27 -23 51 -23 54 -2 6 -14 36 -33 80
-8 19 -16 42 -18 50 -2 8 -7 23 -12 35 -30 63 -52 116 -52 125 0 6 -4 18 -10
28 -10 19 -70 161 -74 177 -4 14 -16 44 -36 90 -10 22 -55 135 -100 250 -46
116 -87 214 -91 220 -5 5 -9 15 -9 22 0 8 -9 33 -20 55 -11 23 -20 45 -20 50
0 5 -9 28 -20 53 -11 25 -29 65 -40 90 -11 25 -20 51 -20 58 0 7 -4 17 -9 23
-5 5 -16 29 -24 54 -16 45 -58 152 -79 200 -6 14 -17 39 -24 55 -31 72 -134
335 -134 344 0 8 142 10 1217 14 249 1 453 5 453 9 0 4 10 4 23 0 20 -6 41 -7
153 -2 l40 2 0 627 -1 626 -1973 3 c-1085 1 -1972 -1 -1970 -5z"/>
<path d="M5921 7063 c-16 -46 -48 -122 -61 -145 -6 -10 -10 -23 -10 -30 0 -7
-6 -24 -13 -38 -7 -14 -21 -47 -31 -75 -10 -27 -24 -63 -31 -80 -12 -27 -26
-62 -30 -75 -4 -11 -19 -47 -33 -80 -9 -19 -16 -39 -17 -45 -1 -5 -12 -32 -23
-58 -12 -27 -22 -51 -22 -53 0 -3 -22 -60 -48 -127 -53 -133 -61 -153 -63
-165 0 -4 -7 -18 -14 -32 -8 -14 -39 -90 -70 -170 -31 -80 -60 -154 -65 -165
-4 -11 -22 -56 -40 -100 -17 -44 -35 -89 -39 -100 -29 -69 -74 -182 -75 -190
-2 -5 -10 -27 -19 -49 -9 -21 -17 -41 -17 -45 -1 -3 -9 -24 -20 -46 -11 -22
-19 -46 -20 -53 0 -7 -5 -20 -10 -30 -6 -9 -51 -120 -100 -247 -50 -126 -95
-239 -100 -250 -5 -11 -45 -114 -90 -230 -45 -115 -88 -223 -95 -240 -13 -32
-85 -213 -130 -330 -15 -38 -32 -76 -37 -82 -6 -7 -7 -13 -4 -13 4 0 1 -10 -6
-22 -7 -13 -13 -25 -14 -28 -3 -16 -99 -263 -114 -295 -5 -11 -39 -96 -75
-190 -37 -93 -72 -183 -79 -200 -8 -16 -20 -48 -27 -70 -8 -22 -17 -42 -20
-45 -3 -3 -12 -26 -20 -52 -7 -27 -17 -48 -21 -48 -4 0 -8 -5 -8 -12 0 -12
-96 -264 -108 -283 -4 -5 -7 -14 -8 -20 -1 -5 -16 -46 -34 -90 -40 -99 -51
-129 -52 -135 -1 -3 -13 -34 -28 -70 -29 -69 -42 -102 -45 -110 -1 -3 -7 -18
-13 -33 -7 -16 -12 -30 -12 -33 0 -2 -8 -23 -19 -47 -10 -23 -33 -80 -51 -127
-18 -47 -38 -98 -45 -115 -21 -48 -37 -94 -35 -101 1 -4 -2 -10 -7 -13 -9 -7
-34 -69 -36 -88 0 -7 -4 -13 -9 -13 -4 0 -8 -6 -8 -13 0 -12 -37 -113 -60
-162 -5 -11 -75 -186 -155 -390 -80 -203 -149 -378 -155 -387 -5 -10 -10 -26
-10 -36 0 -10 -5 -23 -12 -30 -6 -6 -13 -19 -14 -27 -2 -13 83 -15 730 -15
l732 0 28 68 c16 37 35 83 43 102 8 19 21 49 28 65 24 53 146 350 149 360 1 6
12 32 24 59 12 27 22 52 22 55 0 4 10 27 22 52 12 24 23 49 24 54 2 10 42 107
73 180 10 22 26 60 35 85 10 25 23 56 28 70 6 14 15 34 20 44 6 10 21 47 34
82 13 35 32 83 42 106 17 37 33 76 82 193 4 11 24 61 45 110 20 50 40 99 45
110 19 42 262 630 264 640 2 6 8 21 14 35 21 48 71 167 152 365 45 110 88 214
95 230 8 17 34 82 60 145 25 63 52 127 60 141 8 14 12 29 8 33 -3 3 -1 6 5 6
7 0 11 3 10 8 -1 7 6 29 22 67 11 24 29 69 77 185 19 47 40 99 48 115 29 67
85 202 85 207 0 3 10 27 22 54 12 27 23 51 23 54 1 3 9 22 18 44 9 21 17 40
17 41 0 1 8 20 17 41 9 22 17 42 17 46 1 3 4 10 9 14 4 4 7 16 7 26 0 10 5 18
10 18 6 0 10 6 10 13 0 12 72 191 139 347 18 41 34 80 35 86 1 7 8 19 15 28 7
9 11 16 8 16 -4 0 10 37 29 83 20 45 37 87 38 93 1 7 7 18 14 26 6 8 13 23 15
34 4 21 12 40 52 129 14 33 27 68 28 78 1 9 4 17 7 17 3 0 12 17 19 38 12 35
20 54 55 135 8 17 58 138 111 267 53 129 103 251 112 270 9 19 16 41 16 48 0
6 4 12 8 12 4 0 10 11 13 25 4 14 18 50 31 80 14 29 25 60 25 67 0 8 4 18 9
24 4 5 23 45 41 89 33 82 62 152 104 253 14 31 29 69 35 85 l11 27 -793 0
-793 0 -13 -37z"/>
</g>
</svg>
