<svg width="320" height="320" viewBox="12 24 288 288" fill="none" xmlns="http://www.w3.org/2000/svg">
<style>
  .logo-mark { fill: #232323; }
  @media (prefers-color-scheme: dark) {
    .logo-mark { fill: #ffffff; }
  }
</style>
<path class="logo-mark" fill-rule="evenodd" clip-rule="evenodd" d="M193.901 58.1045C201.245 59.2798 207.435 60.4994 212.5 62C235.901 70 241.51 85.0461 207 144C183 185 217.073 230 240.359 230C267.948 230 263.313 164.102 242.333 82.543C253.978 81.6016 264.387 84.043 272.559 90.3135C301.177 112.274 291.53 172.885 251.01 225.692C226.441 257.711 196.163 279.507 169.752 286.812C164.96 288.576 159.973 289.631 154.831 289.9C110.709 292.212 71.8953 235.963 68.1377 164.265C67.0992 144.449 68.8485 125.526 72.8535 108.469L22.9609 112.834L29.7676 35.0381L193.901 58.1045ZM118.451 140.866C114.736 140.621 111.527 143.434 111.281 147.148L108.452 189.971C107.989 196.976 103.027 202.868 96.2021 204.516C92.5836 205.389 90.3582 209.031 91.2314 212.649C92.105 216.268 95.7473 218.495 99.3662 217.621C111.924 214.59 121.054 203.748 121.905 190.858L124.733 148.037C124.979 144.322 122.166 141.112 118.451 140.866ZM168 128.966C168 126.307 165.705 124.23 163.06 124.494L143.494 126.45C141.401 126.66 139.734 128.293 139.48 130.381L133.824 177.046C133.486 179.839 135.768 182.252 138.575 182.071L163.796 180.444C166.16 180.292 168 178.329 168 175.96V128.966ZM95.8164 143.399L85.2354 144.066C83.0687 144.203 81.309 145.869 81.0547 148.025L77.6836 176.619C77.3384 179.549 79.862 182.011 82.7822 181.594L96.7344 179.601C98.9482 179.284 100.593 177.388 100.593 175.151V147.885C100.593 145.292 98.4042 143.236 95.8164 143.399Z"/>
</svg>
